# xmcd
#
# Track frame offsets:
#	150
#	13569
#	27950
#	39194
#	49508
#	62652
#	76051
#	88769
#	101600
#	116459
#	128288
#	140466
#	152875
#	165706
#	177924
#	191019
#	204025
#	217549
#	229771
#	241230
#	254390
#	268355
#	280659
#	293013
#	305168
#	318496
#	330238
#
# Disc length: 4558 seconds
#
# Revision: 0
# Processed by: cddbd v1.5.2PL0 Copyright (c) Steve Scherf et al.
# Submitted via: dBpowerAMP V4.0
#
DISCID=6211cc1b
DTITLE=Various Artist - The Trilon records story
DYEAR=1900
DGENRE=Blues
TTITLE0=Lowell Fulson - Jelly Jelly
TTITLE1=Lowell Fulson - Tell me baby
TTITLE2=Turner Willis - Re enlisted blues
TTITLE3=Bob Geddins - Irma Jean Blues
TTITLE4=Lowell Fulson and Full Tones - Thinkin Blues
TTITLE5=Lowell Fulson and Full Tones - Shuffle
TTITLE6=Snookum Russell and His orchestra - Thats the kick  I'm on
TTITLE7=Viviane Green and Her Trio - The Unfinished boogie
TTITLE8=Viviane Green and Her Trio - Honey Honey Honey
TTITLE9=Esquires - Mary Had a little lamb
TTITLE10=Jimmy  McCracklin - Rock and Rye Pt1
TTITLE11=Jimmy  McCracklin Rock and Rye Pt2
TTITLE12=Lowell Fulson - Tryin to find my baby
TTITLE13=Lowell Fulson - Highway 99
TTITLE14=Jimmy  McCracklin - South side mood
TTITLE15=Jimmy  McCracklin -  Miss Minnie lee blues
TTITLE16=Jimmy  McCracklin - I Cant understand love
TTITLE17=Vido Musso - Vidos pop
TTITLE18=Vido Musso with the Raye sisters - On the Mercury
TTITLE19=Snookum Russell and his orchestra  - I'm a shy guy
TTITLE20=The Vagabonds - When the saints go marching in
TTITLE21=Jimmy  McCracklin - When Im Gone
TTITLE22=Jimmy  McCracklin - Listen Woman
TTITLE23=Allen Greene with the Vivivane Greene trio - Since I fell From You
TTITLE24=Tune Mixers - Baby What are you gonna do
TTITLE25=Vernon Alley and his orchestra - For You
TTITLE26=Norman Davis and His orchestra - Stop that dancing up there
EXTD=
EXTT0=
EXTT1=
EXTT2=
EXTT3=
EXTT4=
EXTT5=
EXTT6=
EXTT7=
EXTT8=
EXTT9=
EXTT10=
EXTT11=
EXTT12=
EXTT13=
EXTT14=
EXTT15=
EXTT16=
EXTT17=
EXTT18=
EXTT19=
EXTT20=
EXTT21=
EXTT22=
EXTT23=
EXTT24=
EXTT25=
EXTT26=
PLAYORDER=
